<?xml version="1.0" standalone="no"?>
<!DOCTYPE svg PUBLIC "-//W3C//DTD SVG 20010904//EN"
 "http://www.w3.org/TR/2001/REC-SVG-20010904/DTD/svg10.dtd">
<svg version="1.0" xmlns="http://www.w3.org/2000/svg"
 width="16.000000pt" height="16.000000pt" viewBox="0 0 16.000000 16.000000"
 preserveAspectRatio="xMidYMid meet">
<metadata>
Created by potrace 1.11, written by Peter Selinger 2001-2013
</metadata>
<g transform="translate(0.000000,16.000000) scale(0.002238,-0.002238)"
fill="#000000" stroke="none">
<path d="M2342 5825 c-52 -18 -101 -59 -126 -105 -24 -44 -29 -78 -41 -240 -3
-41 -8 -100 -10 -130 -2 -30 -7 -93 -10 -140 -5 -80 -9 -129 -20 -275 -2 -33
-7 -96 -10 -140 -3 -44 -7 -107 -10 -140 -3 -33 -7 -96 -10 -140 -3 -44 -8
-111 -11 -150 -6 -76 -8 -106 -19 -301 -7 -118 -6 -135 12 -175 24 -55 60 -92
116 -121 l42 -22 1335 0 1335 0 45 23 c55 29 85 62 112 120 19 40 20 57 14
175 -4 72 -9 147 -11 166 -2 19 -6 82 -10 140 -3 58 -8 121 -10 140 -3 19 -7
76 -10 125 -5 85 -9 149 -19 275 -3 30 -8 102 -11 160 -4 58 -8 128 -10 155
-2 28 -7 84 -10 125 -3 41 -8 104 -11 140 -15 203 -24 231 -90 289 -82 72
-110 72 -369 -5 -337 -100 -354 -105 -450 -135 -49 -15 -115 -35 -145 -43 -30
-8 -123 -35 -206 -60 l-152 -46 -298 91 c-165 50 -312 95 -329 99 -16 4 -106
31 -200 60 -93 28 -205 62 -249 76 -82 25 -105 26 -154 9z m614 -381 c286 -86
544 -163 574 -171 l55 -15 415 125 c587 176 725 217 736 217 6 0 12 -26 13
-57 1 -32 4 -78 6 -103 3 -41 10 -128 20 -285 3 -33 7 -94 10 -135 6 -78 11
-143 20 -270 5 -74 7 -97 19 -290 4 -52 9 -117 11 -145 3 -27 7 -84 10 -125 3
-41 8 -105 11 -142 l5 -68 -48 -1 c-26 0 -601 -1 -1278 -1 l-1230 0 1 43 c1
47 9 162 29 444 4 55 9 118 10 140 2 22 6 81 9 130 10 130 14 188 22 295 9
136 10 154 18 270 4 58 9 123 11 145 2 22 4 66 6 98 1 37 6 57 14 57 7 0 246
-70 531 -156z"/>
<path d="M1104 3502 c-47 -13 -70 -39 -80 -89 -8 -40 18 -94 55 -116 27 -16
187 -17 2501 -17 2308 0 2474 1 2501 17 29 17 59 67 59 98 0 33 -33 86 -63
101 -27 15 -281 16 -2480 18 -1963 1 -2458 -2 -2493 -12z"/>
<path d="M2338 2694 c-2 -1 -21 -5 -43 -8 -104 -16 -222 -71 -314 -145 -120
-96 -202 -225 -241 -378 -28 -108 -22 -268 13 -376 77 -238 279 -420 522 -471
66 -14 216 -15 283 -1 211 42 414 208 499 410 41 98 55 171 54 288 -2 372
-305 673 -683 682 -49 1 -89 1 -90 -1z m219 -254 c106 -35 204 -112 258 -204
59 -101 79 -254 48 -360 -48 -160 -177 -287 -333 -327 -57 -14 -175 -14 -231
1 -109 29 -230 121 -282 214 -78 141 -84 290 -17 435 67 142 205 242 355 258
28 3 51 6 52 8 6 4 114 -14 150 -25z"/>
<path d="M4610 2683 c-228 -47 -402 -185 -501 -397 -17 -35 -32 -77 -35 -92
-3 -15 -7 -31 -10 -35 -8 -13 -16 -102 -16 -179 0 -263 181 -524 434 -626 184
-75 415 -64 584 27 236 127 373 356 372 620 0 276 -152 513 -401 629 -129 61
-292 81 -427 53z m303 -253 c56 -21 140 -80 184 -129 32 -36 91 -157 102 -210
31 -145 -21 -313 -133 -423 -179 -176 -470 -174 -648 4 -98 98 -140 206 -134
346 6 134 45 219 142 316 69 68 178 118 279 128 52 5 148 -10 208 -32z"/>
<path d="M3463 1861 c-65 -22 -151 -79 -221 -145 -59 -56 -83 -93 -77 -122 2
-10 4 -27 4 -36 1 -26 57 -75 90 -80 43 -6 77 11 141 71 69 64 147 104 189 98
40 -7 106 -45 153 -90 83 -78 110 -88 175 -65 35 13 74 74 68 106 -2 9 -4 24
-4 33 -1 23 -93 112 -166 162 -126 86 -238 108 -352 68z"/>
</g>
</svg>
